<?xml version="1.0" encoding="UTF-8" standalone="no"?>
<!DOCTYPE svg PUBLIC "-//W3C//DTD SVG 1.1//EN"
 "http://www.w3.org/Graphics/SVG/1.1/DTD/svg11.dtd">
<!-- Generated by graphviz version 2.43.0 (0)
 -->
<!-- Title: G Pages: 1 -->
<svg width="314pt" height="203pt"
 viewBox="0.00 0.00 314.00 203.00" xmlns="http://www.w3.org/2000/svg" xmlns:xlink="http://www.w3.org/1999/xlink">
<g id="graph0" class="graph" transform="scale(1 1) rotate(0) translate(4 199)">
<title>G</title>
<polygon fill="white" stroke="transparent" points="-4,4 -4,-199 310,-199 310,4 -4,4"/>
<g id="clust1" class="cluster">
<title>cluster_0</title>
<polygon fill="none" stroke="black" points="82,-8 82,-187 224,-187 224,-8 82,-8"/>
<text text-anchor="middle" x="153" y="-175" font-family="Verdana" font-size="10.00">steps</text>
</g>
<!-- steps_0 -->
<g id="node1" class="node">
<title>steps_0</title>
<polygon fill="lightgrey" stroke="black" points="216,-160 90,-160 90,-124 216,-124 216,-160"/>
<text text-anchor="middle" x="153" y="-139.5" font-family="Verdana" font-size="10.00">Command&#45;line tools</text>
</g>
<!-- steps_1 -->
<g id="node2" class="node">
<title>steps_1</title>
<polygon fill="lightgrey" stroke="black" points="216,-106 90,-106 90,-70 216,-70 216,-106"/>
<text text-anchor="middle" x="153" y="-85.5" font-family="Verdana" font-size="10.00">Expression tools</text>
</g>
<!-- outputs -->
<g id="node5" class="node">
<title>outputs</title>
<polygon fill="none" stroke="black" points="306,-106 252,-106 252,-70 306,-70 306,-106"/>
<text text-anchor="middle" x="279" y="-85.5" font-family="Verdana" font-size="10.00">outputs</text>
</g>
<!-- steps_1&#45;&gt;outputs -->
<g id="edge2" class="edge">
<title>steps_1&#45;&gt;outputs</title>
<path fill="none" stroke="black" d="M224,-88C231.5,-88 241.85,-88 241.85,-88"/>
<polygon fill="black" stroke="black" points="241.85,-91.5 251.85,-88 241.85,-84.5 241.85,-91.5"/>
</g>
<!-- steps_2 -->
<g id="node3" class="node">
<title>steps_2</title>
<polygon fill="lightgrey" stroke="black" points="216,-52 90,-52 90,-16 216,-16 216,-52"/>
<text text-anchor="middle" x="153" y="-31.5" font-family="Verdana" font-size="10.00">Sub&#45;workflows</text>
</g>
<!-- inputs -->
<g id="node4" class="node">
<title>inputs</title>
<polygon fill="none" stroke="black" points="54,-106 0,-106 0,-70 54,-70 54,-106"/>
<text text-anchor="middle" x="27" y="-85.5" font-family="Verdana" font-size="10.00">inputs</text>
</g>
<!-- inputs&#45;&gt;steps_1 -->
<g id="edge1" class="edge">
<title>inputs&#45;&gt;steps_1</title>
<path fill="none" stroke="black" d="M54.03,-88C54.03,-88 79.77,-88 79.77,-88"/>
<polygon fill="black" stroke="black" points="72,-91.5 82,-88 72,-84.5 72,-91.5"/>
</g>
</g>
</svg>
