<?xml version="1.0" encoding="UTF-8" standalone="no"?>
<!DOCTYPE svg PUBLIC "-//W3C//DTD SVG 1.1//EN"
 "http://www.w3.org/Graphics/SVG/1.1/DTD/svg11.dtd">
<!-- Generated by graphviz version 2.43.0 (0)
 -->
<!-- Title: G Pages: 1 -->
<svg width="253pt" height="95pt"
 viewBox="0.00 0.00 253.00 95.00" xmlns="http://www.w3.org/2000/svg" xmlns:xlink="http://www.w3.org/1999/xlink">
<g id="graph0" class="graph" transform="scale(1 1) rotate(0) translate(4 91)">
<title>G</title>
<polygon fill="white" stroke="transparent" points="-4,4 -4,-91 249,-91 249,4 -4,4"/>
<g id="clust1" class="cluster">
<title>cluster_0</title>
<polygon fill="none" stroke="black" points="82,-8 82,-79 163,-79 163,-8 82,-8"/>
<text text-anchor="middle" x="122.5" y="-67" font-family="Verdana" font-size="10.00">expression</text>
</g>
<!-- expression -->
<g id="node1" class="node">
<title>expression</title>
<polygon fill="lightgrey" stroke="black" points="155,-52 90,-52 90,-16 155,-16 155,-52"/>
<text text-anchor="middle" x="122.5" y="-31.5" font-family="Verdana" font-size="10.00">JavaScript</text>
</g>
<!-- outputs -->
<g id="node3" class="node">
<title>outputs</title>
<polygon fill="none" stroke="black" points="245,-52 191,-52 191,-16 245,-16 245,-52"/>
<text text-anchor="middle" x="218" y="-31.5" font-family="Verdana" font-size="10.00">outputs</text>
</g>
<!-- expression&#45;&gt;outputs -->
<g id="edge2" class="edge">
<title>expression&#45;&gt;outputs</title>
<path fill="none" stroke="black" d="M163,-34C170.6,-34 180.94,-34 180.94,-34"/>
<polygon fill="black" stroke="black" points="180.94,-37.5 190.94,-34 180.94,-30.5 180.94,-37.5"/>
</g>
<!-- inputs -->
<g id="node2" class="node">
<title>inputs</title>
<polygon fill="none" stroke="black" points="54,-52 0,-52 0,-16 54,-16 54,-52"/>
<text text-anchor="middle" x="27" y="-31.5" font-family="Verdana" font-size="10.00">inputs</text>
</g>
<!-- inputs&#45;&gt;expression -->
<g id="edge1" class="edge">
<title>inputs&#45;&gt;expression</title>
<path fill="none" stroke="black" d="M54.11,-34C54.11,-34 79.9,-34 79.9,-34"/>
<polygon fill="black" stroke="black" points="72,-37.5 82,-34 72,-30.5 72,-37.5"/>
</g>
</g>
</svg>
