<?xml version="1.0" encoding="UTF-8" standalone="no"?>
<!DOCTYPE svg PUBLIC "-//W3C//DTD SVG 1.1//EN"
 "http://www.w3.org/Graphics/SVG/1.1/DTD/svg11.dtd">
<!-- Generated by graphviz version 2.43.0 (0)
 -->
<!-- Title: G Pages: 1 -->
<svg width="262pt" height="95pt"
 viewBox="0.00 0.00 262.00 95.00" xmlns="http://www.w3.org/2000/svg" xmlns:xlink="http://www.w3.org/1999/xlink">
<g id="graph0" class="graph" transform="scale(1 1) rotate(0) translate(4 91)">
<title>G</title>
<polygon fill="white" stroke="transparent" points="-4,4 -4,-91 258,-91 258,4 -4,4"/>
<g id="clust1" class="cluster">
<title>cluster_0</title>
<polygon fill="none" stroke="black" points="82,-8 82,-79 172,-79 172,-8 82,-8"/>
<text text-anchor="middle" x="127" y="-67" font-family="Verdana" font-size="10.00">baseCommand</text>
</g>
<!-- command -->
<g id="node1" class="node">
<title>command</title>
<polygon fill="lightgrey" stroke="black" points="154,-52 100,-52 100,-16 154,-16 154,-52"/>
<text text-anchor="start" x="115" y="-31.5" font-family="sans-serif;" font-size="10.00">echo</text>
</g>
<!-- outputs -->
<g id="node3" class="node">
<title>outputs</title>
<polygon fill="none" stroke="black" points="254,-52 200,-52 200,-16 254,-16 254,-52"/>
<text text-anchor="middle" x="227" y="-31.5" font-family="Verdana" font-size="10.00">outputs</text>
</g>
<!-- command&#45;&gt;outputs -->
<g id="edge2" class="edge">
<title>command&#45;&gt;outputs</title>
<path fill="none" stroke="black" d="M172,-34C180.96,-34 189.92,-34 189.92,-34"/>
<polygon fill="black" stroke="black" points="189.92,-37.5 199.92,-34 189.92,-30.5 189.92,-37.5"/>
</g>
<!-- inputs -->
<g id="node2" class="node">
<title>inputs</title>
<polygon fill="none" stroke="black" points="54,-52 0,-52 0,-16 54,-16 54,-52"/>
<text text-anchor="middle" x="27" y="-31.5" font-family="Verdana" font-size="10.00">inputs</text>
</g>
<!-- inputs&#45;&gt;command -->
<g id="edge1" class="edge">
<title>inputs&#45;&gt;command</title>
<path fill="none" stroke="black" d="M54.06,-34C54.06,-34 62.85,-34 71.72,-34"/>
<polygon fill="black" stroke="black" points="72,-37.5 82,-34 72,-30.5 72,-37.5"/>
</g>
</g>
</svg>
