<?xml version="1.0" encoding="UTF-8" standalone="no"?>
<!DOCTYPE svg PUBLIC "-//W3C//DTD SVG 1.1//EN"
 "http://www.w3.org/Graphics/SVG/1.1/DTD/svg11.dtd">
<!-- Generated by graphviz version 2.43.0 (0)
 -->
<!-- Title: G Pages: 1 -->
<svg width="631pt" height="292pt"
 viewBox="0.00 0.00 631.00 292.00" xmlns="http://www.w3.org/2000/svg" xmlns:xlink="http://www.w3.org/1999/xlink">
<g id="graph0" class="graph" transform="scale(1 1) rotate(0) translate(4 288)">
<title>G</title>
<polygon fill="white" stroke="transparent" points="-4,4 -4,-288 627,-288 627,4 -4,4"/>
<g id="clust1" class="cluster">
<title>cluster_0</title>
<polygon fill="none" stroke="black" points="4,-16 4,-249 85,-249 85,-16 4,-16"/>
<text text-anchor="middle" x="44.5" y="-237" font-family="Verdana" font-size="10.00">CWL Runners</text>
</g>
<g id="clust2" class="cluster">
<title>cluster_1</title>
<polygon fill="none" stroke="black" points="273,-8 273,-276 615,-276 615,-8 273,-8"/>
<text text-anchor="middle" x="444" y="-264" font-family="Verdana" font-size="10.00">Tools</text>
</g>
<g id="clust3" class="cluster">
<title>cluster_2</title>
<polygon fill="none" stroke="black" points="281,-16 281,-249 368,-249 368,-16 281,-16"/>
<text text-anchor="middle" x="324.5" y="-237" font-family="Verdana" font-size="10.00">Editors</text>
</g>
<g id="clust4" class="cluster">
<title>cluster_3</title>
<polygon fill="none" stroke="black" points="406,-70 406,-249 497,-249 497,-70 406,-70"/>
<text text-anchor="middle" x="451.5" y="-237" font-family="Verdana" font-size="10.00">Viewers</text>
</g>
<!-- cwltool -->
<g id="node1" class="node">
<title>cwltool</title>
<polygon fill="none" stroke="black" points="71,-222 17,-222 17,-186 71,-186 71,-222"/>
<text text-anchor="middle" x="44" y="-201.5" font-family="Verdana" font-size="10.00">cwltool</text>
</g>
<!-- CWL Specification -->
<g id="node13" class="node">
<title>CWL Specification</title>
<polygon fill="none" stroke="black" points="235,-222 131,-222 131,-186 235,-186 235,-222"/>
<text text-anchor="middle" x="183" y="-201.5" font-family="Verdana" font-size="10.00">CWL Specification</text>
</g>
<!-- cwltool&#45;&gt;CWL Specification -->
<g id="edge1" class="edge">
<title>cwltool&#45;&gt;CWL Specification</title>
<path fill="none" stroke="black" d="M95.31,-204C110.02,-204 130.89,-204 130.89,-204"/>
<polygon fill="black" stroke="black" points="95,-200.5 85,-204 95,-207.5 95,-200.5"/>
</g>
<!-- toil -->
<g id="node2" class="node">
<title>toil</title>
<polygon fill="none" stroke="black" points="71,-168 17,-168 17,-132 71,-132 71,-168"/>
<text text-anchor="middle" x="44" y="-147.5" font-family="Verdana" font-size="10.00">toil</text>
</g>
<!-- Arvados -->
<g id="node3" class="node">
<title>Arvados</title>
<polygon fill="none" stroke="black" points="72,-114 16,-114 16,-78 72,-78 72,-114"/>
<text text-anchor="middle" x="44" y="-93.5" font-family="Verdana" font-size="10.00">Arvados</text>
</g>
<!-- runner_others -->
<g id="node4" class="node">
<title>runner_others</title>
<polygon fill="none" stroke="black" points="71,-60 17,-60 17,-24 71,-24 71,-60"/>
<text text-anchor="middle" x="44" y="-39.5" font-family="Verdana" font-size="10.00">...</text>
</g>
<!-- vscode&#45;cwl -->
<g id="node5" class="node">
<title>vscode&#45;cwl</title>
<polygon fill="none" stroke="black" points="360,-222 289,-222 289,-186 360,-186 360,-222"/>
<text text-anchor="middle" x="324.5" y="-201.5" font-family="Verdana" font-size="10.00">vscode&#45;cwl</text>
</g>
<!-- CWL Viewer -->
<g id="node9" class="node">
<title>CWL Viewer</title>
<polygon fill="none" stroke="black" points="489,-222 414,-222 414,-186 489,-186 489,-222"/>
<text text-anchor="middle" x="451.5" y="-201.5" font-family="Verdana" font-size="10.00">CWL Viewer</text>
</g>
<!-- vscode&#45;cwl&#45;&gt;CWL Viewer -->
<!-- vim&#45;cwl -->
<g id="node6" class="node">
<title>vim&#45;cwl</title>
<polygon fill="none" stroke="black" points="352.5,-168 296.5,-168 296.5,-132 352.5,-132 352.5,-168"/>
<text text-anchor="middle" x="324.5" y="-147.5" font-family="Verdana" font-size="10.00">vim&#45;cwl</text>
</g>
<!-- benten -->
<g id="node7" class="node">
<title>benten</title>
<polygon fill="none" stroke="black" points="351.5,-114 297.5,-114 297.5,-78 351.5,-78 351.5,-114"/>
<text text-anchor="middle" x="324.5" y="-93.5" font-family="Verdana" font-size="10.00">benten</text>
</g>
<!-- editor_others -->
<g id="node8" class="node">
<title>editor_others</title>
<polygon fill="none" stroke="black" points="351.5,-60 297.5,-60 297.5,-24 351.5,-24 351.5,-60"/>
<text text-anchor="middle" x="324.5" y="-39.5" font-family="Verdana" font-size="10.00">...</text>
</g>
<!-- And more -->
<g id="node12" class="node">
<title>And more</title>
<polygon fill="none" stroke="black" points="607,-222 543,-222 543,-186 607,-186 607,-222"/>
<text text-anchor="middle" x="575" y="-201.5" font-family="Verdana" font-size="10.00">And more</text>
</g>
<!-- CWL Viewer&#45;&gt;And more -->
<!-- vue&#45;cwl -->
<g id="node10" class="node">
<title>vue&#45;cwl</title>
<polygon fill="none" stroke="black" points="479,-168 424,-168 424,-132 479,-132 479,-168"/>
<text text-anchor="middle" x="451.5" y="-147.5" font-family="Verdana" font-size="10.00">vue&#45;cwl</text>
</g>
<!-- viewer_others -->
<g id="node11" class="node">
<title>viewer_others</title>
<polygon fill="none" stroke="black" points="478.5,-114 424.5,-114 424.5,-78 478.5,-78 478.5,-114"/>
<text text-anchor="middle" x="451.5" y="-93.5" font-family="Verdana" font-size="10.00">...</text>
</g>
<!-- CWL Specification&#45;&gt;vscode&#45;cwl -->
<g id="edge2" class="edge">
<title>CWL Specification&#45;&gt;vscode&#45;cwl</title>
<path fill="none" stroke="black" d="M235.29,-204C235.29,-204 250.47,-204 262.89,-204"/>
<polygon fill="black" stroke="black" points="263,-207.5 273,-204 263,-200.5 263,-207.5"/>
</g>
</g>
</svg>
