<?xml version="1.0" encoding="UTF-8" standalone="no"?>
<!DOCTYPE svg PUBLIC "-//W3C//DTD SVG 1.1//EN"
 "http://www.w3.org/Graphics/SVG/1.1/DTD/svg11.dtd">
<!-- Generated by graphviz version 2.43.0 (0)
 -->
<!-- Title: A GraphViz graph with the CWL processing units, e.g. Process, Workflow, CommandLineTool, etc. Pages: 1 -->
<svg width="386pt" height="153pt"
 viewBox="0.00 0.00 385.50 153.00" xmlns="http://www.w3.org/2000/svg" xmlns:xlink="http://www.w3.org/1999/xlink">
<g id="graph0" class="graph" transform="scale(1 1) rotate(0) translate(4 149)">
<title>A GraphViz graph with the CWL processing units, e.g. Process, Workflow, CommandLineTool, etc.</title>
<polygon fill="white" stroke="transparent" points="-4,4 -4,-149 381.5,-149 381.5,4 -4,4"/>
<!-- Process -->
<g id="node1" class="node">
<title>Process</title>
<polygon fill="none" stroke="black" points="243.5,-145 189.5,-145 189.5,-109 243.5,-109 243.5,-145"/>
<text text-anchor="middle" x="216.5" y="-124.5" font-family="Verdana" font-size="10.00">Process</text>
</g>
<!-- n1 -->
<g id="node6" class="node">
<title>n1</title>
<polygon fill="none" stroke="black" points="217,-73 216,-73 216,-72 217,-72 217,-73"/>
</g>
<!-- Process&#45;&gt;n1 -->
<g id="edge1" class="edge">
<title>Process&#45;&gt;n1</title>
<path fill="none" stroke="black" d="M216.5,-98.66C216.5,-86.21 216.5,-74.01 216.5,-73.06"/>
<polygon fill="black" stroke="black" points="213,-98.94 216.5,-108.94 220,-98.94 213,-98.94"/>
</g>
<!-- CommandLineTool -->
<g id="node2" class="node">
<title>CommandLineTool</title>
<polygon fill="none" stroke="black" points="107,-36 0,-36 0,0 107,0 107,-36"/>
<text text-anchor="middle" x="53.5" y="-15.5" font-family="Verdana" font-size="10.00">CommandLineTool</text>
</g>
<!-- ExpressionTool -->
<g id="node3" class="node">
<title>ExpressionTool</title>
<polygon fill="none" stroke="black" points="214,-36 125,-36 125,0 214,0 214,-36"/>
<text text-anchor="middle" x="169.5" y="-15.5" font-family="Verdana" font-size="10.00">ExpressionTool</text>
</g>
<!-- Operation -->
<g id="node4" class="node">
<title>Operation</title>
<polygon fill="none" stroke="black" points="297,-36 232,-36 232,0 297,0 297,-36"/>
<text text-anchor="middle" x="264.5" y="-15.5" font-family="Verdana" font-size="10.00">Operation</text>
</g>
<!-- Workflow -->
<g id="node5" class="node">
<title>Workflow</title>
<polygon fill="none" stroke="black" points="377.5,-36 315.5,-36 315.5,0 377.5,0 377.5,-36"/>
<text text-anchor="middle" x="346.5" y="-15.5" font-family="Verdana" font-size="10.00">Workflow</text>
</g>
<!-- n1&#45;&gt;CommandLineTool -->
<g id="edge2" class="edge">
<title>n1&#45;&gt;CommandLineTool</title>
<path fill="none" stroke="black" d="M216.38,-71.96C213.35,-70.97 152.39,-51.16 105.94,-36.05"/>
</g>
<!-- n1&#45;&gt;ExpressionTool -->
<g id="edge3" class="edge">
<title>n1&#45;&gt;ExpressionTool</title>
<path fill="none" stroke="black" d="M216.37,-71.85C214.69,-69.95 197.65,-50.74 184.6,-36.02"/>
</g>
<!-- n1&#45;&gt;Operation -->
<g id="edge4" class="edge">
<title>n1&#45;&gt;Operation</title>
<path fill="none" stroke="black" d="M216.64,-71.85C218.35,-69.95 235.75,-50.74 249.08,-36.02"/>
</g>
<!-- n1&#45;&gt;Workflow -->
<g id="edge5" class="edge">
<title>n1&#45;&gt;Workflow</title>
<path fill="none" stroke="black" d="M216.59,-71.96C219.25,-70.88 277.64,-47.07 315.23,-31.75"/>
</g>
</g>
</svg>
