<?xml version="1.0" encoding="UTF-8" standalone="no"?>
<!DOCTYPE svg PUBLIC "-//W3C//DTD SVG 1.1//EN"
 "http://www.w3.org/Graphics/SVG/1.1/DTD/svg11.dtd">
<!-- Generated by graphviz version 2.43.0 (0)
 -->
<!-- Title: G Pages: 1 -->
<svg width="157pt" height="210pt"
 viewBox="0.00 0.00 157.00 210.00" xmlns="http://www.w3.org/2000/svg" xmlns:xlink="http://www.w3.org/1999/xlink">
<g id="graph0" class="graph" transform="scale(1 1) rotate(0) translate(4 206)">
<title>G</title>
<polygon fill="#eeeeee" stroke="transparent" points="-4,4 -4,-206 153,-206 153,4 -4,4"/>
<g id="clust1" class="cluster">
<title>cluster_inputs</title>
<polygon fill="#eeeeee" stroke="black" stroke-dasharray="5,2" points="8,-118 8,-194 141,-194 141,-118 8,-118"/>
<text text-anchor="middle" x="74.5" y="-125.8" font-family="Times,serif" font-size="14.00">Workflow Inputs</text>
</g>
<!-- echo -->
<g id="node1" class="node">
<title>echo</title>
<polygon fill="lightgoldenrodyellow" stroke="black" points="47,-73.5 47,-109.5 101,-109.5 101,-73.5 47,-73.5"/>
<text text-anchor="middle" x="74" y="-87.8" font-family="Times,serif" font-size="14.00">echo</text>
</g>
<!-- uppercase -->
<g id="node2" class="node">
<title>uppercase</title>
<polygon fill="none" stroke="black" stroke-dasharray="5,2" points="29,-0.5 29,-36.5 119,-36.5 119,-0.5 29,-0.5"/>
<text text-anchor="middle" x="74" y="-14.8" font-family="Times,serif" font-size="14.00">uppercase</text>
</g>
<!-- echo&#45;&gt;uppercase -->
<g id="edge1" class="edge">
<title>echo&#45;&gt;uppercase</title>
<path fill="none" stroke="black" d="M74,-73.31C74,-65.29 74,-55.55 74,-46.57"/>
<polygon fill="black" stroke="black" points="77.5,-46.53 74,-36.53 70.5,-46.53 77.5,-46.53"/>
</g>
<!-- message -->
<g id="node3" class="node">
<title>message</title>
<polygon fill="#94ddf4" stroke="black" points="34.5,-149.5 34.5,-185.5 113.5,-185.5 113.5,-149.5 34.5,-149.5"/>
<text text-anchor="middle" x="74" y="-163.8" font-family="Times,serif" font-size="14.00">message</text>
</g>
<!-- message&#45;&gt;echo -->
<g id="edge2" class="edge">
<title>message&#45;&gt;echo</title>
<path fill="none" stroke="black" d="M74,-149.34C74,-140.56 74,-129.66 74,-119.77"/>
<polygon fill="black" stroke="black" points="77.5,-119.57 74,-109.57 70.5,-119.57 77.5,-119.57"/>
</g>
</g>
</svg>
